<?xml version="1.0" encoding="UTF-8"?>
<svg width="15px" height="15px" viewBox="0 0 15 15" version="1.1" xmlns="http://www.w3.org/2000/svg" xmlns:xlink="http://www.w3.org/1999/xlink">
    <title>Instagram</title>
    <g id="Layouts" stroke="none" stroke-width="1" fill="none" fill-rule="evenodd">
        <g id="home-light-" transform="translate(-1285.000000, -86.000000)" fill="#3C3B36">
            <g id="Group-6" transform="translate(0.000000, -0.317518)">
                <g id="social" transform="translate(1285.000000, 86.317518)">
                    <path d="M7.50001489,0 C9.53687767,0 9.79228567,0.00863367187 10.5922404,0.0451332844 C11.390528,0.0815435812 11.9357297,0.208339537 12.412785,0.393755175 C12.9059763,0.585393007 13.3242333,0.841842967 13.74121,1.25878997 C14.1581571,1.67576676 14.414607,2.0940237 14.6062746,2.58721501 C14.7916604,3.06427027 14.9184564,3.60947203 14.9548667,4.40775956 C14.9913663,5.20771432 15,5.46312229 15,7.50001489 C15,9.53687764 14.9913663,9.79228567 14.9548667,10.5922403 C14.9184564,11.3905279 14.7916604,11.9357297 14.6062746,12.412785 C14.414607,12.9059763 14.1581571,13.3242332 13.74121,13.74121 C13.3242333,14.1581571 12.9059763,14.414607 12.412785,14.6062746 C11.9357297,14.7916605 11.390528,14.9184563 10.5922404,14.9548667 C9.79228567,14.9913663 9.53687767,15 7.50001489,15 C5.46312233,15 5.20771433,14.9913663 4.4077596,14.9548667 C3.60947203,14.9184563 3.06427028,14.7916605 2.58721501,14.6062746 C2.09402371,14.414607 1.67576676,14.1581571 1.25878998,13.74121 C0.841842964,13.3242332 0.585393011,12.9059763 0.393755171,12.412785 C0.208339538,11.9357297 0.0815435813,11.3905279 0.0451332859,10.5922403 C0.00863367495,9.79228567 0,9.53687764 0,7.50001489 C0,5.46312229 0.00863367495,5.20771432 0.0451332859,4.40775956 C0.0815435813,3.60947203 0.208339538,3.06427027 0.393755171,2.58721501 C0.585393011,2.0940237 0.841842964,1.67576676 1.25878998,1.25878997 C1.67576676,0.841842967 2.09402371,0.585393007 2.58721501,0.393755175 C3.06427028,0.208339537 3.60947203,0.0815435812 4.4077596,0.0451332844 C5.20771433,0.00863367187 5.46312233,0 7.50001489,0 Z M7.50001489,1.35134894 C5.49741881,1.35134894 5.26020113,1.35900016 4.46935639,1.39508297 C3.73811381,1.42842682 3.34099448,1.55060823 3.07671468,1.6533192 C2.72663399,1.78937403 2.47679327,1.95189554 2.21435929,2.21435929 C1.95189554,2.47679327 1.78937403,2.72663399 1.6533192,3.07671467 C1.55060823,3.34099447 1.42842683,3.7381138 1.39508297,4.46935642 C1.35900016,5.26020112 1.35134894,5.49741885 1.35134894,7.50001489 C1.35134894,9.50258119 1.35900016,9.73979887 1.39508297,10.5306436 C1.42842683,11.2618862 1.55060823,11.6590056 1.6533192,11.9232853 C1.78937403,12.273366 1.95192531,12.5232067 2.21435929,12.7856407 C2.47679327,13.0481044 2.72663399,13.210626 3.07671468,13.3466808 C3.34099448,13.4493918 3.73811381,13.5715731 4.46935639,13.604917 C5.26011184,13.6409998 5.49726998,13.648651 7.50001489,13.648651 C9.50272999,13.648651 9.73991794,13.6409998 10.5306436,13.604917 C11.2618862,13.5715731 11.6590055,13.4493918 11.9232853,13.3466808 C12.273366,13.210626 12.5232067,13.0481044 12.7856407,12.7856407 C13.0481045,12.5232067 13.2106259,12.273366 13.3466808,11.9232853 C13.4493918,11.6590056 13.5715732,11.2618862 13.604917,10.5306436 C13.6409998,9.73979887 13.648651,9.50258119 13.648651,7.50001489 C13.648651,5.49741885 13.6409998,5.26020112 13.604917,4.46935642 C13.5715732,3.7381138 13.4493918,3.34099447 13.3466808,3.07671467 C13.2106259,2.72663399 13.0481045,2.47679327 12.7856407,2.21435929 C12.5232067,1.95189554 12.273366,1.78937403 11.9232853,1.6533192 C11.6590055,1.55060823 11.2618862,1.42842682 10.5306436,1.39508297 C9.73979888,1.35900016 9.50258119,1.35134894 7.50001489,1.35134894 Z M7.50001489,3.64865106 C9.62705494,3.64865106 11.3513489,5.37294502 11.3513489,7.50001489 C11.3513489,9.62705494 9.62705494,11.3513489 7.50001489,11.3513489 C5.37294503,11.3513489 3.64865106,9.62705494 3.64865106,7.50001489 C3.64865106,5.37294502 5.37294503,3.64865106 7.50001489,3.64865106 Z M7.50001489,9.99999999 C8.88071831,9.99999999 9.99999999,8.88071831 9.99999999,7.50001489 C9.99999999,6.11928169 8.88071831,4.99999999 7.50001489,4.99999999 C6.11928169,4.99999999 4.99999999,6.11928169 4.99999999,7.50001489 C4.99999999,8.88071831 6.11928169,9.99999999 7.50001489,9.99999999 Z M12.4035261,3.49648996 C12.4035261,3.99355155 12.0005716,4.39647622 11.5035101,4.39647622 C11.0064782,4.39647622 10.6035237,3.99355155 10.6035237,3.49648996 C10.6035237,2.99942839 11.0064782,2.59647388 11.5035101,2.59647388 C12.0005716,2.59647388 12.4035261,2.99942839 12.4035261,3.49648996 Z" id="Instagram"></path>
                </g>
            </g>
        </g>
    </g>
</svg>