<?xml version="1.0" encoding="UTF-8"?>
<svg width="15px" height="13px" viewBox="0 0 15 13" version="1.1" xmlns="http://www.w3.org/2000/svg" xmlns:xlink="http://www.w3.org/1999/xlink">
    <title>Twitter</title>
    <g id="Layouts" stroke="none" stroke-width="1" fill="none" fill-rule="evenodd">
        <g id="home-light-" transform="translate(-1355.000000, -88.000000)" fill="#3C3B36" fill-rule="nonzero">
            <g id="Group-6" transform="translate(0.000000, -0.317518)">
                <g id="social" transform="translate(1285.000000, 86.317518)">
                    <path d="M85,3.44298165 C84.4481014,3.68769428 83.8550619,3.85317243 83.2324618,3.92753093 C83.8678613,3.54659597 84.3557628,2.94349973 84.5855428,2.224904 C83.9909795,2.57749741 83.3324191,2.83379046 82.631194,2.97153654 C82.070153,2.37362102 81.2701896,2 80.3852014,2 C78.685622,2 77.3078564,3.37776559 77.3078564,5.07734504 C77.3078564,5.31840068 77.334979,5.55336137 77.3873956,5.77857012 C74.8299506,5.65027123 72.562321,4.42518437 71.0446761,2.56317425 C70.7795453,3.01785823 70.6277808,3.54629122 70.6277808,4.11037972 C70.6277808,5.17791187 71.1711465,6.11988785 71.9967087,6.67178643 C71.4923508,6.65563479 71.0178582,6.51727921 70.6027915,6.28688974 C70.6024867,6.29968916 70.6024867,6.31248857 70.6024867,6.32559273 C70.6024867,7.81672457 71.6633144,9.06040105 73.0709453,9.34320717 C72.8128238,9.41360395 72.5409886,9.45108795 72.2603157,9.45108795 C72.0619248,9.45108795 71.8693241,9.43188883 71.6812946,9.39592857 C72.0728957,10.6185774 73.2093009,11.5081368 74.5559822,11.5331261 C73.5027732,12.3586884 72.1759005,12.8505516 70.7341379,12.8505516 C70.4857683,12.8505516 70.2407509,12.8359237 70,12.8075821 C71.3622234,13.6803803 72.9798257,14.1899189 74.7174986,14.1899189 C80.3778875,14.1899189 83.4732127,9.50076187 83.4732127,5.43420491 C83.4732127,5.3007253 83.4701652,5.16815993 83.464375,5.03620406 C84.0656427,4.6019382 84.5873712,4.0600963 85,3.44298165 Z" id="Twitter"></path>
                </g>
            </g>
        </g>
    </g>
</svg>